<svg xmlns="http://www.w3.org/2000/svg" xmlns:xlink="http://www.w3.org/1999/xlink" contentStyleType="text/css" data-diagram-type="SEQUENCE" height="1925px" preserveAspectRatio="none" style="width:2305px;height:1925px;background:#FFFFFF;" version="1.1" viewBox="0 0 2305 1925" width="2305px" zoomAndPan="magnify"><defs/><g><rect fill="none" height="189.6641" style="stroke:#000000;stroke-width:1.5;" width="1286.2075" x="827.9063" y="433.9219"/><g><title>User</title><rect fill="#000000" fill-opacity="0.00000" height="1747.5078" width="8" x="340.9551" y="83.5938"/><line style="stroke:#181818;stroke-width:0.5;stroke-dasharray:5.0,5.0;" x1="344" x2="344" y1="83.5938" y2="1831.1016"/></g><g><title>Register View</title><rect fill="#000000" fill-opacity="0.00000" height="1747.5078" width="8" x="593.9785" y="83.5938"/><line style="stroke:#181818;stroke-width:0.5;stroke-dasharray:5.0,5.0;" x1="597.8193" x2="597.8193" y1="83.5938" y2="1831.1016"/></g><g><title>AuthController</title><rect fill="#000000" fill-opacity="0.00000" height="1747.5078" width="8" x="891.8989" y="83.5938"/><line style="stroke:#181818;stroke-width:0.5;stroke-dasharray:5.0,5.0;" x1="894.9063" x2="894.9063" y1="83.5938" y2="1831.1016"/></g><g><title>RestApi</title><rect fill="#000000" fill-opacity="0.00000" height="1747.5078" width="8" x="1331.4102" y="83.5938"/><line style="stroke:#181818;stroke-width:0.5;stroke-dasharray:5.0,5.0;" x1="1334.6714" x2="1334.6714" y1="83.5938" y2="1831.1016"/></g><g><title>Account (Model)</title><rect fill="#000000" fill-opacity="0.00000" height="1747.5078" width="8" x="1439.2393" y="83.5938"/><line style="stroke:#181818;stroke-width:0.5;stroke-dasharray:5.0,5.0;" x1="1443.1489" x2="1443.1489" y1="83.5938" y2="1831.1016"/></g><g><title>Mail (Core)</title><rect fill="#000000" fill-opacity="0.00000" height="1747.5078" width="8" x="1558.5903" y="83.5938"/><line style="stroke:#181818;stroke-width:0.5;stroke-dasharray:5.0,5.0;" x1="1562.3296" x2="1562.3296" y1="83.5938" y2="1831.1016"/></g><g><title>Session</title><rect fill="#000000" fill-opacity="0.00000" height="1747.5078" width="8" x="1675.2754" y="83.5938"/><line style="stroke:#181818;stroke-width:0.5;stroke-dasharray:5.0,5.0;" x1="1678.8511" x2="1678.8511" y1="83.5938" y2="1831.1016"/></g><g><title>Register OTP View</title><rect fill="#000000" fill-opacity="0.00000" height="1747.5078" width="8" x="1818.0566" y="83.5938"/><line style="stroke:#181818;stroke-width:0.5;stroke-dasharray:5.0,5.0;" x1="1821.6997" x2="1821.6997" y1="83.5938" y2="1831.1016"/></g><g><title>Cookies (JWT)</title><rect fill="#000000" fill-opacity="0.00000" height="1747.5078" width="8" x="1954.7676" y="83.5938"/><line style="stroke:#181818;stroke-width:0.5;stroke-dasharray:5.0,5.0;" x1="1958.4136" x2="1958.4136" y1="83.5938" y2="1831.1016"/></g><g><title>Database</title><rect fill="#000000" fill-opacity="0.00000" height="1747.5078" width="8" x="2060.1177" y="83.5938"/><line style="stroke:#181818;stroke-width:0.5;stroke-dasharray:5.0,5.0;" x1="2063.1216" x2="2063.1216" y1="83.5938" y2="1831.1016"/></g><g><title>Email Server</title><rect fill="#000000" fill-opacity="0.00000" height="1747.5078" width="8" x="2161.7148" y="83.5938"/><line style="stroke:#181818;stroke-width:0.5;stroke-dasharray:5.0,5.0;" x1="2165.1138" x2="2165.1138" y1="83.5938" y2="1831.1016"/></g><g><title>System</title><rect fill="#000000" fill-opacity="0.00000" height="1747.5078" width="8" x="2256.4189" y="83.5938"/><line style="stroke:#181818;stroke-width:0.5;stroke-dasharray:5.0,5.0;" x1="2260.3159" x2="2260.3159" y1="83.5938" y2="1831.1016"/></g><g class="participant participant-head" data-participant="User"><text fill="#000000" font-family="sans-serif" font-size="14" lengthAdjust="spacing" textLength="31.9102" x="326" y="80.292">User</text><ellipse cx="344.9551" cy="15.7969" fill="#E2E2F0" rx="8" ry="8" style="stroke:#181818;stroke-width:0.5;"/><path d="M344.9551,23.7969 L344.9551,50.7969 M331.9551,31.7969 L357.9551,31.7969 M344.9551,50.7969 L331.9551,65.7969 M344.9551,50.7969 L357.9551,65.7969" fill="none" style="stroke:#181818;stroke-width:0.5;"/></g><g class="participant participant-tail" data-participant="User"><text fill="#000000" font-family="sans-serif" font-size="14" lengthAdjust="spacing" textLength="31.9102" x="326" y="1843.0967">User</text><ellipse cx="344.9551" cy="1854.8984" fill="#E2E2F0" rx="8" ry="8" style="stroke:#181818;stroke-width:0.5;"/><path d="M344.9551,1862.8984 L344.9551,1889.8984 M331.9551,1870.8984 L357.9551,1870.8984 M344.9551,1889.8984 L331.9551,1904.8984 M344.9551,1889.8984 L357.9551,1904.8984" fill="none" style="stroke:#181818;stroke-width:0.5;"/></g><g class="participant participant-head" data-participant="View"><rect fill="#E2E2F0" height="46.5938" rx="2.5" ry="2.5" style="stroke:#181818;stroke-width:0.5;" width="110.3184" x="542.8193" y="36"/><text fill="#000000" font-family="sans-serif" font-size="14" lengthAdjust="spacing" textLength="96.25" x="549.8535" y="55.9951">Register View</text><text fill="#000000" font-family="sans-serif" font-size="14" lengthAdjust="spacing" textLength="96.3184" x="549.8193" y="72.292">(register.php)</text></g><g class="participant participant-tail" data-participant="View"><rect fill="#E2E2F0" height="46.5938" rx="2.5" ry="2.5" style="stroke:#181818;stroke-width:0.5;" width="110.3184" x="542.8193" y="1830.1016"/><text fill="#000000" font-family="sans-serif" font-size="14" lengthAdjust="spacing" textLength="96.25" x="549.8535" y="1850.0967">Register View</text><text fill="#000000" font-family="sans-serif" font-size="14" lengthAdjust="spacing" textLength="96.3184" x="549.8193" y="1866.3936">(register.php)</text></g><g class="participant participant-head" data-participant="Controller"><rect fill="#E2E2F0" height="30.2969" rx="2.5" ry="2.5" style="stroke:#181818;stroke-width:0.5;" width="115.9854" x="837.9063" y="52.2969"/><text fill="#000000" font-family="sans-serif" font-size="14" lengthAdjust="spacing" textLength="101.9854" x="844.9063" y="72.292">AuthController</text></g><g class="participant participant-tail" data-participant="Controller"><rect fill="#E2E2F0" height="30.2969" rx="2.5" ry="2.5" style="stroke:#181818;stroke-width:0.5;" width="115.9854" x="837.9063" y="1830.1016"/><text fill="#000000" font-family="sans-serif" font-size="14" lengthAdjust="spacing" textLength="101.9854" x="844.9063" y="1850.0967">AuthController</text></g><g class="participant participant-head" data-participant="API"><rect fill="#E2E2F0" height="30.2969" rx="2.5" ry="2.5" style="stroke:#181818;stroke-width:0.5;" width="67.4775" x="1301.6714" y="52.2969"/><text fill="#000000" font-family="sans-serif" font-size="14" lengthAdjust="spacing" textLength="53.4775" x="1308.6714" y="72.292">RestApi</text></g><g class="participant participant-tail" data-participant="API"><rect fill="#E2E2F0" height="30.2969" rx="2.5" ry="2.5" style="stroke:#181818;stroke-width:0.5;" width="67.4775" x="1301.6714" y="1830.1016"/><text fill="#000000" font-family="sans-serif" font-size="14" lengthAdjust="spacing" textLength="53.4775" x="1308.6714" y="1850.0967">RestApi</text></g><g class="participant participant-head" data-participant="Model"><rect fill="#E2E2F0" height="30.2969" rx="2.5" ry="2.5" style="stroke:#181818;stroke-width:0.5;" width="128.1807" x="1379.1489" y="52.2969"/><text fill="#000000" font-family="sans-serif" font-size="14" lengthAdjust="spacing" textLength="114.1807" x="1386.1489" y="72.292">Account (Model)</text></g><g class="participant participant-tail" data-participant="Model"><rect fill="#E2E2F0" height="30.2969" rx="2.5" ry="2.5" style="stroke:#181818;stroke-width:0.5;" width="128.1807" x="1379.1489" y="1830.1016"/><text fill="#000000" font-family="sans-serif" font-size="14" lengthAdjust="spacing" textLength="114.1807" x="1386.1489" y="1850.0967">Account (Model)</text></g><g class="participant participant-head" data-participant="Mail"><rect fill="#E2E2F0" height="30.2969" rx="2.5" ry="2.5" style="stroke:#181818;stroke-width:0.5;" width="90.5215" x="1517.3296" y="52.2969"/><text fill="#000000" font-family="sans-serif" font-size="14" lengthAdjust="spacing" textLength="76.5215" x="1524.3296" y="72.292">Mail (Core)</text></g><g class="participant participant-tail" data-participant="Mail"><rect fill="#E2E2F0" height="30.2969" rx="2.5" ry="2.5" style="stroke:#181818;stroke-width:0.5;" width="90.5215" x="1517.3296" y="1830.1016"/><text fill="#000000" font-family="sans-serif" font-size="14" lengthAdjust="spacing" textLength="76.5215" x="1524.3296" y="1850.0967">Mail (Core)</text></g><g class="participant participant-head" data-participant="Session"><rect fill="#E2E2F0" height="46.5938" rx="2.5" ry="2.5" style="stroke:#181818;stroke-width:0.5;" width="122.8486" x="1617.8511" y="36"/><text fill="#000000" font-family="sans-serif" font-size="14" lengthAdjust="spacing" textLength="53.416" x="1652.5674" y="55.9951">Session</text><text fill="#000000" font-family="sans-serif" font-size="14" lengthAdjust="spacing" textLength="108.8486" x="1624.8511" y="72.292">(register_temp)</text></g><g class="participant participant-tail" data-participant="Session"><rect fill="#E2E2F0" height="46.5938" rx="2.5" ry="2.5" style="stroke:#181818;stroke-width:0.5;" width="122.8486" x="1617.8511" y="1830.1016"/><text fill="#000000" font-family="sans-serif" font-size="14" lengthAdjust="spacing" textLength="53.416" x="1652.5674" y="1850.0967">Session</text><text fill="#000000" font-family="sans-serif" font-size="14" lengthAdjust="spacing" textLength="108.8486" x="1624.8511" y="1866.3936">(register_temp)</text></g><g class="participant participant-head" data-participant="ViewOTP"><rect fill="#E2E2F0" height="46.5938" rx="2.5" ry="2.5" style="stroke:#181818;stroke-width:0.5;" width="142.7139" x="1750.6997" y="36"/><text fill="#000000" font-family="sans-serif" font-size="14" lengthAdjust="spacing" textLength="128.7139" x="1757.6997" y="55.9951">Register OTP View</text><text fill="#000000" font-family="sans-serif" font-size="14" lengthAdjust="spacing" textLength="126.2598" x="1758.9268" y="72.292">(register_otp.php)</text></g><g class="participant participant-tail" data-participant="ViewOTP"><rect fill="#E2E2F0" height="46.5938" rx="2.5" ry="2.5" style="stroke:#181818;stroke-width:0.5;" width="142.7139" x="1750.6997" y="1830.1016"/><text fill="#000000" font-family="sans-serif" font-size="14" lengthAdjust="spacing" textLength="128.7139" x="1757.6997" y="1850.0967">Register OTP View</text><text fill="#000000" font-family="sans-serif" font-size="14" lengthAdjust="spacing" textLength="126.2598" x="1758.9268" y="1866.3936">(register_otp.php)</text></g><g class="participant participant-head" data-participant="Cookies"><rect fill="#E2E2F0" height="30.2969" rx="2.5" ry="2.5" style="stroke:#181818;stroke-width:0.5;" width="110.708" x="1903.4136" y="52.2969"/><text fill="#000000" font-family="sans-serif" font-size="14" lengthAdjust="spacing" textLength="96.708" x="1910.4136" y="72.292">Cookies (JWT)</text></g><g class="participant participant-tail" data-participant="Cookies"><rect fill="#E2E2F0" height="30.2969" rx="2.5" ry="2.5" style="stroke:#181818;stroke-width:0.5;" width="110.708" x="1903.4136" y="1830.1016"/><text fill="#000000" font-family="sans-serif" font-size="14" lengthAdjust="spacing" textLength="96.708" x="1910.4136" y="1850.0967">Cookies (JWT)</text></g><g class="participant participant-head" data-participant="DB"><text fill="#000000" font-family="sans-serif" font-size="14" lengthAdjust="spacing" textLength="66.8008" x="2027.7173" y="63.9951">Database</text><text fill="#000000" font-family="sans-serif" font-size="14" lengthAdjust="spacing" textLength="73.9922" x="2024.1216" y="80.292">(accounts)</text><path d="M2046.1177,15 C2046.1177,5 2064.1177,5 2064.1177,5 C2064.1177,5 2082.1177,5 2082.1177,15 L2082.1177,41 C2082.1177,51 2064.1177,51 2064.1177,51 C2064.1177,51 2046.1177,51 2046.1177,41 L2046.1177,15" fill="#E2E2F0" style="stroke:#181818;stroke-width:1.5;"/><path d="M2046.1177,15 C2046.1177,25 2064.1177,25 2064.1177,25 C2064.1177,25 2082.1177,25 2082.1177,15" fill="none" style="stroke:#181818;stroke-width:1.5;"/></g><g class="participant participant-tail" data-participant="DB"><text fill="#000000" font-family="sans-serif" font-size="14" lengthAdjust="spacing" textLength="66.8008" x="2027.7173" y="1843.0967">Database</text><text fill="#000000" font-family="sans-serif" font-size="14" lengthAdjust="spacing" textLength="73.9922" x="2024.1216" y="1859.3936">(accounts)</text><path d="M2046.1177,1872.6953 C2046.1177,1862.6953 2064.1177,1862.6953 2064.1177,1862.6953 C2064.1177,1862.6953 2082.1177,1862.6953 2082.1177,1872.6953 L2082.1177,1898.6953 C2082.1177,1908.6953 2064.1177,1908.6953 2064.1177,1908.6953 C2064.1177,1908.6953 2046.1177,1908.6953 2046.1177,1898.6953 L2046.1177,1872.6953" fill="#E2E2F0" style="stroke:#181818;stroke-width:1.5;"/><path d="M2046.1177,1872.6953 C2046.1177,1882.6953 2064.1177,1882.6953 2064.1177,1882.6953 C2064.1177,1882.6953 2082.1177,1882.6953 2082.1177,1872.6953" fill="none" style="stroke:#181818;stroke-width:1.5;"/></g><g class="participant participant-head" data-participant="EmailServer"><rect fill="#E2E2F0" height="30.2969" rx="2.5" ry="2.5" style="stroke:#181818;stroke-width:0.5;" width="103.2021" x="2114.1138" y="52.2969"/><text fill="#000000" font-family="sans-serif" font-size="14" lengthAdjust="spacing" textLength="89.2021" x="2121.1138" y="72.292">Email Server</text></g><g class="participant participant-tail" data-participant="EmailServer"><rect fill="#E2E2F0" height="30.2969" rx="2.5" ry="2.5" style="stroke:#181818;stroke-width:0.5;" width="103.2021" x="2114.1138" y="1830.1016"/><text fill="#000000" font-family="sans-serif" font-size="14" lengthAdjust="spacing" textLength="89.2021" x="2121.1138" y="1850.0967">Email Server</text></g><g class="participant participant-head" data-participant="System"><rect fill="#E2E2F0" height="30.2969" rx="2.5" ry="2.5" style="stroke:#181818;stroke-width:0.5;" width="66.2061" x="2227.3159" y="52.2969"/><text fill="#000000" font-family="sans-serif" font-size="14" lengthAdjust="spacing" textLength="52.2061" x="2234.3159" y="72.292">System</text></g><g class="participant participant-tail" data-participant="System"><rect fill="#E2E2F0" height="30.2969" rx="2.5" ry="2.5" style="stroke:#181818;stroke-width:0.5;" width="66.2061" x="2227.3159" y="1830.1016"/><text fill="#000000" font-family="sans-serif" font-size="14" lengthAdjust="spacing" textLength="52.2061" x="2234.3159" y="1850.0967">System</text></g><rect fill="#EEEEEE" height="3" style="stroke:#EEEEEE;stroke-width:1;" width="2298.522" x="0" y="114.1602"/><line style="stroke:#000000;stroke-width:1;" x1="0" x2="2298.522" y1="114.1602" y2="114.1602"/><line style="stroke:#000000;stroke-width:1;" x1="0" x2="2298.522" y1="117.1602" y2="117.1602"/><rect fill="#EEEEEE" height="23.1328" style="stroke:#000000;stroke-width:2;" width="237.3613" x="1030.5803" y="103.5938"/><text fill="#000000" font-family="sans-serif" font-size="13" font-weight="bold" lengthAdjust="spacing" textLength="218.8354" x="1036.5803" y="119.6606">B&#432;&#7899;c 1: Hi&#7875;n th&#7883; form &#273;&#259;ng k&#253;</text><g class="message" data-participant-1="User" data-participant-2="View"><polygon fill="#181818" points="585.9785,153.8594,595.9785,157.8594,585.9785,161.8594,589.9785,157.8594" style="stroke:#181818;stroke-width:1;"/><line style="stroke:#181818;stroke-width:1;" x1="344.9551" x2="591.9785" y1="157.8594" y2="157.8594"/><text fill="#000000" font-family="sans-serif" font-size="13" lengthAdjust="spacing" textLength="115.6479" x="351.9551" y="152.7935">Truy c&#7853;p /register</text></g><g class="message" data-participant-1="View" data-participant-2="Controller"><polygon fill="#181818" points="883.8989,182.9922,893.8989,186.9922,883.8989,190.9922,887.8989,186.9922" style="stroke:#181818;stroke-width:1;"/><line style="stroke:#181818;stroke-width:1;" x1="597.9785" x2="889.8989" y1="186.9922" y2="186.9922"/><text fill="#000000" font-family="sans-serif" font-size="13" lengthAdjust="spacing" textLength="196.1807" x="604.9785" y="181.9263">showRegister() - Hi&#7875;n th&#7883; form</text></g><g class="message" data-participant-1="Controller" data-participant-2="View"><polygon fill="#181818" points="608.9785,212.125,598.9785,216.125,608.9785,220.125,604.9785,216.125" style="stroke:#181818;stroke-width:1;"/><line style="stroke:#181818;stroke-width:1;" x1="602.9785" x2="894.8989" y1="216.125" y2="216.125"/><text fill="#000000" font-family="sans-serif" font-size="13" lengthAdjust="spacing" textLength="265.5034" x="614.9785" y="211.0591">render_view('register') - Tr&#7843; v&#7873; giao di&#7879;n</text></g><rect fill="#EEEEEE" height="3" style="stroke:#EEEEEE;stroke-width:1;" width="2298.522" x="0" y="244.6914"/><line style="stroke:#000000;stroke-width:1;" x1="0" x2="2298.522" y1="244.6914" y2="244.6914"/><line style="stroke:#000000;stroke-width:1;" x1="0" x2="2298.522" y1="247.6914" y2="247.6914"/><rect fill="#EEEEEE" height="23.1328" style="stroke:#000000;stroke-width:2;" width="236.752" x="1030.885" y="234.125"/><text fill="#000000" font-family="sans-serif" font-size="13" font-weight="bold" lengthAdjust="spacing" textLength="218.2261" x="1036.885" y="250.1919">B&#432;&#7899;c 2: G&#7917;i th&#244;ng tin &#273;&#259;ng k&#253;</text><g class="message" data-participant-1="User" data-participant-2="View"><polygon fill="#181818" points="585.9785,284.3906,595.9785,288.3906,585.9785,292.3906,589.9785,288.3906" style="stroke:#181818;stroke-width:1;"/><line style="stroke:#181818;stroke-width:1;" x1="344.9551" x2="591.9785" y1="288.3906" y2="288.3906"/><text fill="#000000" font-family="sans-serif" font-size="13" lengthAdjust="spacing" textLength="229.0234" x="351.9551" y="283.3247">Nh&#7853;p H&#7885; t&#234;n, Email, S&#272;T, M&#7853;t kh&#7849;u</text></g><g class="message" data-participant-1="View" data-participant-2="Controller"><polygon fill="#181818" points="883.8989,313.5234,893.8989,317.5234,883.8989,321.5234,887.8989,317.5234" style="stroke:#181818;stroke-width:1;"/><line style="stroke:#181818;stroke-width:1;" x1="597.9785" x2="889.8989" y1="317.5234" y2="317.5234"/><text fill="#000000" font-family="sans-serif" font-size="13" lengthAdjust="spacing" textLength="153.9116" x="604.9785" y="312.4575">G&#7917;i AJAX POST /register</text></g><g class="message" data-participant-1="Controller" data-participant-2="API"><polygon fill="#181818" points="1323.4102,342.6563,1333.4102,346.6563,1323.4102,350.6563,1327.4102,346.6563" style="stroke:#181818;stroke-width:1;"/><line style="stroke:#181818;stroke-width:1;" x1="895.8989" x2="1329.4102" y1="346.6563" y2="346.6563"/><text fill="#000000" font-family="sans-serif" font-size="13" lengthAdjust="spacing" textLength="210.6279" x="902.8989" y="341.5903">setHeaders() - Thi&#7871;t l&#7853;p headers</text></g><g class="message" data-participant-1="Controller" data-participant-2="API"><polygon fill="#181818" points="1323.4102,371.7891,1333.4102,375.7891,1323.4102,379.7891,1327.4102,375.7891" style="stroke:#181818;stroke-width:1;"/><line style="stroke:#181818;stroke-width:1;" x1="895.8989" x2="1329.4102" y1="375.7891" y2="375.7891"/><text fill="#000000" font-family="sans-serif" font-size="13" lengthAdjust="spacing" textLength="184.666" x="902.8989" y="370.7231">getBody() - L&#7845;y d&#7919; li&#7879;u body</text></g><rect fill="#EEEEEE" height="3" style="stroke:#EEEEEE;stroke-width:1;" width="2298.522" x="0" y="404.3555"/><line style="stroke:#000000;stroke-width:1;" x1="0" x2="2298.522" y1="404.3555" y2="404.3555"/><line style="stroke:#000000;stroke-width:1;" x1="0" x2="2298.522" y1="407.3555" y2="407.3555"/><rect fill="#EEEEEE" height="23.1328" style="stroke:#000000;stroke-width:2;" width="195.0352" x="1051.7434" y="393.7891"/><text fill="#000000" font-family="sans-serif" font-size="13" font-weight="bold" lengthAdjust="spacing" textLength="176.5093" x="1057.7434" y="409.856">B&#432;&#7899;c 3: Ki&#7875;m tra d&#7919; li&#7879;u</text><path d="M827.9063,433.9219 L1101.7773,433.9219 L1101.7773,441.0547 L1091.7773,451.0547 L827.9063,451.0547 L827.9063,433.9219" fill="#EEEEEE" style="stroke:#000000;stroke-width:1.5;"/><rect fill="none" height="189.6641" style="stroke:#000000;stroke-width:1.5;" width="1286.2075" x="827.9063" y="433.9219"/><text fill="#000000" font-family="sans-serif" font-size="13" font-weight="bold" lengthAdjust="spacing" textLength="228.8711" x="842.9063" y="446.9888">Ki&#7875;m tra email v&#224; s&#7889; &#273;i&#7879;n tho&#7841;i</text><g class="message" data-participant-1="Controller" data-participant-2="Model"><polygon fill="#181818" points="1431.2393,468.1875,1441.2393,472.1875,1431.2393,476.1875,1435.2393,472.1875" style="stroke:#181818;stroke-width:1;"/><line style="stroke:#181818;stroke-width:1;" x1="895.8989" x2="1437.2393" y1="472.1875" y2="472.1875"/><text fill="#000000" font-family="sans-serif" font-size="13" lengthAdjust="spacing" textLength="237.3516" x="902.8989" y="467.1216">findByEmail(email) - T&#236;m b&#7857;ng email</text></g><g class="message" data-participant-1="Model" data-participant-2="DB"><polygon fill="#181818" points="2052.1177,497.3203,2062.1177,501.3203,2052.1177,505.3203,2056.1177,501.3203" style="stroke:#181818;stroke-width:1;"/><line style="stroke:#181818;stroke-width:1;" x1="1443.2393" x2="2058.1177" y1="501.3203" y2="501.3203"/><text fill="#000000" font-family="sans-serif" font-size="13" lengthAdjust="spacing" textLength="282.623" x="1450.2393" y="496.2544">SELECT * FROM accounts WHERE email = ?</text></g><g class="message" data-participant-1="DB" data-participant-2="Model"><polygon fill="#181818" points="1454.2393,511.3203,1444.2393,515.3203,1454.2393,519.3203,1450.2393,515.3203" style="stroke:#181818;stroke-width:1;"/><line style="stroke:#181818;stroke-width:1;stroke-dasharray:2.0,2.0;" x1="1448.2393" x2="2063.1177" y1="515.3203" y2="515.3203"/></g><g class="message" data-participant-1="Model" data-participant-2="Controller"><polygon fill="#181818" points="906.8989,525.3203,896.8989,529.3203,906.8989,533.3203,902.8989,529.3203" style="stroke:#181818;stroke-width:1;"/><line style="stroke:#181818;stroke-width:1;stroke-dasharray:2.0,2.0;" x1="900.8989" x2="1442.2393" y1="529.3203" y2="529.3203"/></g><g class="message" data-participant-1="Controller" data-participant-2="Model"><polygon fill="#181818" points="1431.2393,554.4531,1441.2393,558.4531,1431.2393,562.4531,1435.2393,558.4531" style="stroke:#181818;stroke-width:1;"/><line style="stroke:#181818;stroke-width:1;" x1="895.8989" x2="1437.2393" y1="558.4531" y2="558.4531"/><text fill="#000000" font-family="sans-serif" font-size="13" lengthAdjust="spacing" textLength="294.4932" x="902.8989" y="553.3872">findByPhone(phone) - T&#236;m b&#7857;ng s&#7889; &#273;i&#7879;n tho&#7841;i</text></g><g class="message" data-participant-1="Model" data-participant-2="DB"><polygon fill="#181818" points="2052.1177,583.5859,2062.1177,587.5859,2052.1177,591.5859,2056.1177,587.5859" style="stroke:#181818;stroke-width:1;"/><line style="stroke:#181818;stroke-width:1;" x1="1443.2393" x2="2058.1177" y1="587.5859" y2="587.5859"/><text fill="#000000" font-family="sans-serif" font-size="13" lengthAdjust="spacing" textLength="287.4536" x="1450.2393" y="582.52">SELECT * FROM accounts WHERE phone = ?</text></g><g class="message" data-participant-1="DB" data-participant-2="Model"><polygon fill="#181818" points="1454.2393,597.5859,1444.2393,601.5859,1454.2393,605.5859,1450.2393,601.5859" style="stroke:#181818;stroke-width:1;"/><line style="stroke:#181818;stroke-width:1;stroke-dasharray:2.0,2.0;" x1="1448.2393" x2="2063.1177" y1="601.5859" y2="601.5859"/></g><g class="message" data-participant-1="Model" data-participant-2="Controller"><polygon fill="#181818" points="906.8989,611.5859,896.8989,615.5859,906.8989,619.5859,902.8989,615.5859" style="stroke:#181818;stroke-width:1;"/><line style="stroke:#181818;stroke-width:1;stroke-dasharray:2.0,2.0;" x1="900.8989" x2="1442.2393" y1="615.5859" y2="615.5859"/></g><g class="message" data-participant-1="Controller" data-participant-2="API"><polygon fill="#181818" points="1323.4102,647.7188,1333.4102,651.7188,1323.4102,655.7188,1327.4102,651.7188" style="stroke:#181818;stroke-width:1;"/><line style="stroke:#181818;stroke-width:1;" x1="895.8989" x2="1329.4102" y1="651.7188" y2="651.7188"/><text fill="#000000" font-family="sans-serif" font-size="13" lengthAdjust="spacing" textLength="157.9487" x="902.8989" y="646.6528">Validate d&#7919; li&#7879;u &#273;&#7847;u v&#224;o</text></g><rect fill="#EEEEEE" height="3" style="stroke:#EEEEEE;stroke-width:1;" width="2298.522" x="0" y="680.2852"/><line style="stroke:#000000;stroke-width:1;" x1="0" x2="2298.522" y1="680.2852" y2="680.2852"/><line style="stroke:#000000;stroke-width:1;" x1="0" x2="2298.522" y1="683.2852" y2="683.2852"/><rect fill="#EEEEEE" height="23.1328" style="stroke:#000000;stroke-width:2;" width="240.7192" x="1028.9014" y="669.7188"/><text fill="#000000" font-family="sans-serif" font-size="13" font-weight="bold" lengthAdjust="spacing" textLength="222.1934" x="1034.9014" y="685.7856">B&#432;&#7899;c 4: T&#7841;o OTP &amp; l&#432;u session</text><g class="message" data-participant-1="Controller" data-participant-2="Session"><polygon fill="#181818" points="1667.2754,722.9844,1677.2754,726.9844,1667.2754,730.9844,1671.2754,726.9844" style="stroke:#181818;stroke-width:1;"/><line style="stroke:#181818;stroke-width:1;" x1="895.8989" x2="1673.2754" y1="726.9844" y2="726.9844"/><text fill="#000000" font-family="sans-serif" font-size="13" lengthAdjust="spacing" textLength="582.4673" x="902.8989" y="721.9185">register_temp (name, email, phone, hash(password), otp, otp_expiry) - L&#432;u th&#244;ng tin t&#7841;m</text></g><path d="M1684,707.8516 L1684,732.8516 L1965,732.8516 L1965,717.8516 L1955,707.8516 L1684,707.8516" fill="#FEFFDD" style="stroke:#181818;stroke-width:0.5;"/><path d="M1955,707.8516 L1955,717.8516 L1965,717.8516 L1955,707.8516" fill="#FEFFDD" style="stroke:#181818;stroke-width:0.5;"/><text fill="#000000" font-family="sans-serif" font-size="13" lengthAdjust="spacing" textLength="260.8125" x="1690" y="724.9185">OTP &#273;&#432;&#7907;c t&#7841;o ng&#7851;u nhi&#234;n v&#224; c&#243; th&#7901;i h&#7841;n</text><rect fill="#EEEEEE" height="3" style="stroke:#EEEEEE;stroke-width:1;" width="2298.522" x="0" y="758.5508"/><line style="stroke:#000000;stroke-width:1;" x1="0" x2="2298.522" y1="758.5508" y2="758.5508"/><line style="stroke:#000000;stroke-width:1;" x1="0" x2="2298.522" y1="761.5508" y2="761.5508"/><rect fill="#EEEEEE" height="23.1328" style="stroke:#000000;stroke-width:2;" width="180.5498" x="1058.9861" y="747.9844"/><text fill="#000000" font-family="sans-serif" font-size="13" font-weight="bold" lengthAdjust="spacing" textLength="162.0239" x="1064.9861" y="764.0513">B&#432;&#7899;c 5: G&#7917;i email OTP</text><g class="message" data-participant-1="Controller" data-participant-2="Mail"><polygon fill="#181818" points="1550.5903,798.25,1560.5903,802.25,1550.5903,806.25,1554.5903,802.25" style="stroke:#181818;stroke-width:1;"/><line style="stroke:#181818;stroke-width:1;" x1="895.8989" x2="1556.5903" y1="802.25" y2="802.25"/><text fill="#000000" font-family="sans-serif" font-size="13" lengthAdjust="spacing" textLength="295.6865" x="902.8989" y="797.1841">send(email, subject, content) - G&#7917;i email OTP</text></g><g class="message" data-participant-1="Mail" data-participant-2="EmailServer"><polygon fill="#181818" points="2153.7148,827.3828,2163.7148,831.3828,2153.7148,835.3828,2157.7148,831.3828" style="stroke:#181818;stroke-width:1;"/><line style="stroke:#181818;stroke-width:1;" x1="1562.5903" x2="2159.7148" y1="831.3828" y2="831.3828"/><text fill="#000000" font-family="sans-serif" font-size="13" lengthAdjust="spacing" textLength="76.832" x="1569.5903" y="826.3169">G&#7917;i m&#227; OTP</text></g><g class="message" data-participant-1="EmailServer" data-participant-2="Mail"><polygon fill="#181818" points="1573.5903,841.3828,1563.5903,845.3828,1573.5903,849.3828,1569.5903,845.3828" style="stroke:#181818;stroke-width:1;"/><line style="stroke:#181818;stroke-width:1;stroke-dasharray:2.0,2.0;" x1="1567.5903" x2="2164.7148" y1="845.3828" y2="845.3828"/></g><g class="message" data-participant-1="Mail" data-participant-2="Controller"><polygon fill="#181818" points="906.8989,855.3828,896.8989,859.3828,906.8989,863.3828,902.8989,859.3828" style="stroke:#181818;stroke-width:1;"/><line style="stroke:#181818;stroke-width:1;stroke-dasharray:2.0,2.0;" x1="900.8989" x2="1561.5903" y1="859.3828" y2="859.3828"/></g><g class="message" data-participant-1="Controller" data-participant-2="API"><polygon fill="#181818" points="1323.4102,884.5156,1333.4102,888.5156,1323.4102,892.5156,1327.4102,888.5156" style="stroke:#181818;stroke-width:1;"/><line style="stroke:#181818;stroke-width:1;" x1="895.8989" x2="1329.4102" y1="888.5156" y2="888.5156"/><text fill="#000000" font-family="sans-serif" font-size="13" lengthAdjust="spacing" textLength="408.4082" x="902.8989" y="883.4497">responseSuccess(redirect: /register/otp) - Ph&#7843;n h&#7891;i th&#224;nh c&#244;ng</text></g><g class="message" data-participant-1="Controller" data-participant-2="View"><polygon fill="#181818" points="608.9785,913.6484,598.9785,917.6484,608.9785,921.6484,604.9785,917.6484" style="stroke:#181818;stroke-width:1;"/><line style="stroke:#181818;stroke-width:1;" x1="602.9785" x2="894.8989" y1="917.6484" y2="917.6484"/><text fill="#000000" font-family="sans-serif" font-size="13" lengthAdjust="spacing" textLength="273.9204" x="614.9785" y="912.5825">JSON redirect - Tr&#7843; v&#7873; JSON chuy&#7875;n h&#432;&#7899;ng</text></g><rect fill="#EEEEEE" height="3" style="stroke:#EEEEEE;stroke-width:1;" width="2298.522" x="0" y="946.2148"/><line style="stroke:#000000;stroke-width:1;" x1="0" x2="2298.522" y1="946.2148" y2="946.2148"/><line style="stroke:#000000;stroke-width:1;" x1="0" x2="2298.522" y1="949.2148" y2="949.2148"/><rect fill="#EEEEEE" height="23.1328" style="stroke:#000000;stroke-width:2;" width="249.6377" x="1024.4421" y="935.6484"/><text fill="#000000" font-family="sans-serif" font-size="13" font-weight="bold" lengthAdjust="spacing" textLength="231.1118" x="1030.4421" y="951.7153">B&#432;&#7899;c 6: Hi&#7875;n th&#7883; form nh&#7853;p OTP</text><g class="message" data-participant-1="User" data-participant-2="ViewOTP"><polygon fill="#181818" points="1810.0566,985.9141,1820.0566,989.9141,1810.0566,993.9141,1814.0566,989.9141" style="stroke:#181818;stroke-width:1;"/><line style="stroke:#181818;stroke-width:1;" x1="344.9551" x2="1816.0566" y1="989.9141" y2="989.9141"/><text fill="#000000" font-family="sans-serif" font-size="13" lengthAdjust="spacing" textLength="141.3306" x="351.9551" y="984.8481">Truy c&#7853;p /register/otp</text></g><g class="message" data-participant-1="ViewOTP" data-participant-2="Controller"><polygon fill="#181818" points="906.8989,1015.0469,896.8989,1019.0469,906.8989,1023.0469,902.8989,1019.0469" style="stroke:#181818;stroke-width:1;"/><line style="stroke:#181818;stroke-width:1;" x1="900.8989" x2="1821.0566" y1="1019.0469" y2="1019.0469"/><text fill="#000000" font-family="sans-serif" font-size="13" lengthAdjust="spacing" textLength="249.9072" x="912.8989" y="1013.981">showRegisterOtp() - Hi&#7875;n th&#7883; form OTP</text></g><g class="message" data-participant-1="Controller" data-participant-2="Session"><polygon fill="#181818" points="1667.2754,1044.1797,1677.2754,1048.1797,1667.2754,1052.1797,1671.2754,1048.1797" style="stroke:#181818;stroke-width:1;"/><line style="stroke:#181818;stroke-width:1;" x1="895.8989" x2="1673.2754" y1="1048.1797" y2="1048.1797"/><text fill="#000000" font-family="sans-serif" font-size="13" lengthAdjust="spacing" textLength="440.978" x="902.8989" y="1043.1138">Ki&#7875;m tra register_temp - th&#244;ng tin t&#7841;m v&#224; otp_expiry - th&#7901;i h&#7841;n OTP</text></g><g class="message" data-participant-1="Controller" data-participant-2="ViewOTP"><polygon fill="#181818" points="1810.0566,1073.3125,1820.0566,1077.3125,1810.0566,1081.3125,1814.0566,1077.3125" style="stroke:#181818;stroke-width:1;"/><line style="stroke:#181818;stroke-width:1;" x1="895.8989" x2="1816.0566" y1="1077.3125" y2="1077.3125"/><text fill="#000000" font-family="sans-serif" font-size="13" lengthAdjust="spacing" textLength="337.4224" x="902.8989" y="1072.2466">render_view('register_otp', email) - Tr&#7843; v&#7873; giao di&#7879;n</text></g><rect fill="#EEEEEE" height="3" style="stroke:#EEEEEE;stroke-width:1;" width="2298.522" x="0" y="1105.8789"/><line style="stroke:#000000;stroke-width:1;" x1="0" x2="2298.522" y1="1105.8789" y2="1105.8789"/><line style="stroke:#000000;stroke-width:1;" x1="0" x2="2298.522" y1="1108.8789" y2="1108.8789"/><rect fill="#EEEEEE" height="23.1328" style="stroke:#000000;stroke-width:2;" width="149.8081" x="1074.3569" y="1095.3125"/><text fill="#000000" font-family="sans-serif" font-size="13" font-weight="bold" lengthAdjust="spacing" textLength="131.2822" x="1080.3569" y="1111.3794">B&#432;&#7899;c 7: Nh&#7853;p OTP</text><g class="message" data-participant-1="User" data-participant-2="ViewOTP"><polygon fill="#181818" points="1810.0566,1145.5781,1820.0566,1149.5781,1810.0566,1153.5781,1814.0566,1149.5781" style="stroke:#181818;stroke-width:1;"/><line style="stroke:#181818;stroke-width:1;" x1="344.9551" x2="1816.0566" y1="1149.5781" y2="1149.5781"/><text fill="#000000" font-family="sans-serif" font-size="13" lengthAdjust="spacing" textLength="95.5894" x="351.9551" y="1144.5122">Nh&#7853;p 6 s&#7889; OTP</text></g><g class="message" data-participant-1="ViewOTP" data-participant-2="Controller"><polygon fill="#181818" points="906.8989,1174.7109,896.8989,1178.7109,906.8989,1182.7109,902.8989,1178.7109" style="stroke:#181818;stroke-width:1;"/><line style="stroke:#181818;stroke-width:1;" x1="900.8989" x2="1821.0566" y1="1178.7109" y2="1178.7109"/><text fill="#000000" font-family="sans-serif" font-size="13" lengthAdjust="spacing" textLength="220.8921" x="912.8989" y="1173.645">G&#7917;i AJAX POST /register/otp/verify</text></g><g class="message" data-participant-1="Controller" data-participant-2="API"><polygon fill="#181818" points="1323.4102,1203.8438,1333.4102,1207.8438,1323.4102,1211.8438,1327.4102,1207.8438" style="stroke:#181818;stroke-width:1;"/><line style="stroke:#181818;stroke-width:1;" x1="895.8989" x2="1329.4102" y1="1207.8438" y2="1207.8438"/><text fill="#000000" font-family="sans-serif" font-size="13" lengthAdjust="spacing" textLength="415.5112" x="902.8989" y="1202.7778">setHeaders() &amp; getBody() - Thi&#7871;t l&#7853;p headers &amp; l&#7845;y d&#7919; li&#7879;u body</text></g><g class="message" data-participant-1="Controller" data-participant-2="Session"><polygon fill="#181818" points="1667.2754,1235.9766,1677.2754,1239.9766,1667.2754,1243.9766,1671.2754,1239.9766" style="stroke:#181818;stroke-width:1;"/><line style="stroke:#181818;stroke-width:1;" x1="895.8989" x2="1673.2754" y1="1239.9766" y2="1239.9766"/><text fill="#000000" font-family="sans-serif" font-size="13" lengthAdjust="spacing" textLength="129.8032" x="902.8989" y="1234.9106">Ki&#7875;m tra OTP h&#7907;p l&#7879;</text></g><path d="M1684,1220.8438 L1684,1245.8438 L2045,1245.8438 L2045,1230.8438 L2035,1220.8438 L1684,1220.8438" fill="#FEFFDD" style="stroke:#181818;stroke-width:0.5;"/><path d="M2035,1220.8438 L2035,1230.8438 L2045,1230.8438 L2035,1220.8438" fill="#FEFFDD" style="stroke:#181818;stroke-width:0.5;"/><text fill="#000000" font-family="sans-serif" font-size="13" lengthAdjust="spacing" textLength="340.8818" x="1690" y="1237.9106">So s&#225;nh OTP ng&#432;&#7901;i d&#249;ng nh&#7853;p v&#7899;i OTP trong session</text><rect fill="#EEEEEE" height="3" style="stroke:#EEEEEE;stroke-width:1;" width="2298.522" x="0" y="1271.543"/><line style="stroke:#000000;stroke-width:1;" x1="0" x2="2298.522" y1="1271.543" y2="1271.543"/><line style="stroke:#000000;stroke-width:1;" x1="0" x2="2298.522" y1="1274.543" y2="1274.543"/><rect fill="#EEEEEE" height="23.1328" style="stroke:#000000;stroke-width:2;" width="177.5474" x="1060.4873" y="1260.9766"/><text fill="#000000" font-family="sans-serif" font-size="13" font-weight="bold" lengthAdjust="spacing" textLength="159.0215" x="1066.4873" y="1277.0435">B&#432;&#7899;c 8: T&#7841;o t&#224;i kho&#7843;n</text><g class="message" data-participant-1="Controller" data-participant-2="Model"><polygon fill="#181818" points="1431.2393,1311.2422,1441.2393,1315.2422,1431.2393,1319.2422,1435.2393,1315.2422" style="stroke:#181818;stroke-width:1;"/><line style="stroke:#181818;stroke-width:1;" x1="895.8989" x2="1437.2393" y1="1315.2422" y2="1315.2422"/><text fill="#000000" font-family="sans-serif" font-size="13" lengthAdjust="spacing" textLength="204.2803" x="902.8989" y="1310.1763">create([...]) - T&#7841;o t&#224;i kho&#7843;n m&#7899;i</text></g><g class="message" data-participant-1="Model" data-participant-2="DB"><polygon fill="#181818" points="2052.1177,1340.375,2062.1177,1344.375,2052.1177,1348.375,2056.1177,1344.375" style="stroke:#181818;stroke-width:1;"/><line style="stroke:#181818;stroke-width:1;" x1="1443.2393" x2="2058.1177" y1="1344.375" y2="1344.375"/><text fill="#000000" font-family="sans-serif" font-size="13" lengthAdjust="spacing" textLength="172.231" x="1450.2393" y="1339.3091">INSERT INTO accounts (...)</text></g><g class="message" data-participant-1="DB" data-participant-2="Model"><polygon fill="#181818" points="1454.2393,1354.375,1444.2393,1358.375,1454.2393,1362.375,1450.2393,1358.375" style="stroke:#181818;stroke-width:1;"/><line style="stroke:#181818;stroke-width:1;stroke-dasharray:2.0,2.0;" x1="1448.2393" x2="2063.1177" y1="1358.375" y2="1358.375"/></g><g class="message" data-participant-1="Model" data-participant-2="Controller"><polygon fill="#181818" points="906.8989,1368.375,896.8989,1372.375,906.8989,1376.375,902.8989,1372.375" style="stroke:#181818;stroke-width:1;"/><line style="stroke:#181818;stroke-width:1;stroke-dasharray:2.0,2.0;" x1="900.8989" x2="1442.2393" y1="1372.375" y2="1372.375"/></g><rect fill="#EEEEEE" height="3" style="stroke:#EEEEEE;stroke-width:1;" width="2298.522" x="0" y="1400.9414"/><line style="stroke:#000000;stroke-width:1;" x1="0" x2="2298.522" y1="1400.9414" y2="1400.9414"/><line style="stroke:#000000;stroke-width:1;" x1="0" x2="2298.522" y1="1403.9414" y2="1403.9414"/><rect fill="#EEEEEE" height="23.1328" style="stroke:#000000;stroke-width:2;" width="218.2803" x="1040.1208" y="1390.375"/><text fill="#000000" font-family="sans-serif" font-size="13" font-weight="bold" lengthAdjust="spacing" textLength="199.7544" x="1046.1208" y="1406.4419">B&#432;&#7899;c 9: &#272;&#259;ng nh&#7853;p t&#7921; &#273;&#7897;ng</text><g class="message" data-participant-1="Controller" data-participant-2="Cookies"><polygon fill="#181818" points="1946.7676,1440.6406,1956.7676,1444.6406,1946.7676,1448.6406,1950.7676,1444.6406" style="stroke:#181818;stroke-width:1;"/><line style="stroke:#181818;stroke-width:1;" x1="895.8989" x2="1952.7676" y1="1444.6406" y2="1444.6406"/><text fill="#000000" font-family="sans-serif" font-size="13" lengthAdjust="spacing" textLength="340.0503" x="902.8989" y="1439.5747">setAuth(user as JWT) - Thi&#7871;t l&#7853;p JWT cho ng&#432;&#7901;i d&#249;ng</text></g><g class="message" data-participant-1="Cookies" data-participant-2="User"><polygon fill="#181818" points="355.9551,1469.7734,345.9551,1473.7734,355.9551,1477.7734,351.9551,1473.7734" style="stroke:#181818;stroke-width:1;"/><line style="stroke:#181818;stroke-width:1;" x1="349.9551" x2="1957.7676" y1="1473.7734" y2="1473.7734"/><text fill="#000000" font-family="sans-serif" font-size="13" lengthAdjust="spacing" textLength="151.3662" x="361.9551" y="1468.7075">Set-Cookie - G&#7917;i cookie</text></g><g class="message" data-participant-1="Controller" data-participant-2="API"><polygon fill="#181818" points="1323.4102,1498.9063,1333.4102,1502.9063,1323.4102,1506.9063,1327.4102,1502.9063" style="stroke:#181818;stroke-width:1;"/><line style="stroke:#181818;stroke-width:1;" x1="895.8989" x2="1329.4102" y1="1502.9063" y2="1502.9063"/><text fill="#000000" font-family="sans-serif" font-size="13" lengthAdjust="spacing" textLength="376.0732" x="902.8989" y="1497.8403">responseSuccess(user, redirect: '/') - Ph&#7843;n h&#7891;i th&#224;nh c&#244;ng</text></g><g class="message" data-participant-1="API" data-participant-2="ViewOTP"><polygon fill="#181818" points="1810.0566,1528.0391,1820.0566,1532.0391,1810.0566,1536.0391,1814.0566,1532.0391" style="stroke:#181818;stroke-width:1;"/><line style="stroke:#181818;stroke-width:1;stroke-dasharray:2.0,2.0;" x1="1335.4102" x2="1816.0566" y1="1532.0391" y2="1532.0391"/><text fill="#000000" font-family="sans-serif" font-size="13" lengthAdjust="spacing" textLength="154.8892" x="1342.4102" y="1526.9731">Tr&#7843; v&#7873; JSON th&#224;nh c&#244;ng</text></g><rect fill="#EEEEEE" height="3" style="stroke:#EEEEEE;stroke-width:1;" width="2298.522" x="0" y="1560.6055"/><line style="stroke:#000000;stroke-width:1;" x1="0" x2="2298.522" y1="1560.6055" y2="1560.6055"/><line style="stroke:#000000;stroke-width:1;" x1="0" x2="2298.522" y1="1563.6055" y2="1563.6055"/><rect fill="#EEEEEE" height="23.1328" style="stroke:#000000;stroke-width:2;" width="220.0703" x="1039.2258" y="1550.0391"/><text fill="#000000" font-family="sans-serif" font-size="13" font-weight="bold" lengthAdjust="spacing" textLength="201.5444" x="1045.2258" y="1566.106">B&#432;&#7899;c 10: Truy c&#7853;p h&#7879; th&#7889;ng</text><g class="message" data-participant-1="User" data-participant-2="System"><polygon fill="#181818" points="2248.4189,1603.3047,2258.4189,1607.3047,2248.4189,1611.3047,2252.4189,1607.3047" style="stroke:#181818;stroke-width:1;"/><line style="stroke:#181818;stroke-width:1;" x1="344.9551" x2="2254.4189" y1="1607.3047" y2="1607.3047"/><text fill="#000000" font-family="sans-serif" font-size="13" lengthAdjust="spacing" textLength="230.7754" x="351.9551" y="1602.2388">&#272;&#227; &#273;&#259;ng nh&#7853;p &amp; truy c&#7853;p trang ch&#7911;</text></g><path d="M5,1588.1719 L5,1613.1719 L340,1613.1719 L340,1598.1719 L330,1588.1719 L5,1588.1719" fill="#FEFFDD" style="stroke:#181818;stroke-width:0.5;"/><path d="M330,1588.1719 L330,1598.1719 L340,1598.1719 L330,1588.1719" fill="#FEFFDD" style="stroke:#181818;stroke-width:0.5;"/><text fill="#000000" font-family="sans-serif" font-size="13" lengthAdjust="spacing" textLength="314.6279" x="11" y="1605.2388">Ng&#432;&#7901;i d&#249;ng &#273;&#432;&#7907;c chuy&#7875;n h&#432;&#7899;ng &#273;&#7871;n trang ch&#237;nh</text><rect fill="#EEEEEE" height="3" style="stroke:#EEEEEE;stroke-width:1;" width="2298.522" x="0" y="1638.8711"/><line style="stroke:#000000;stroke-width:1;" x1="0" x2="2298.522" y1="1638.8711" y2="1638.8711"/><line style="stroke:#000000;stroke-width:1;" x1="0" x2="2298.522" y1="1641.8711" y2="1641.8711"/><rect fill="#EEEEEE" height="23.1328" style="stroke:#000000;stroke-width:2;" width="175.0845" x="1061.7188" y="1628.3047"/><text fill="#000000" font-family="sans-serif" font-size="13" font-weight="bold" lengthAdjust="spacing" textLength="156.5586" x="1067.7188" y="1644.3716">T&#249;y ch&#7885;n: G&#7917;i l&#7841;i OTP</text><g class="message" data-participant-1="User" data-participant-2="ViewOTP"><polygon fill="#181818" points="1810.0566,1678.5703,1820.0566,1682.5703,1810.0566,1686.5703,1814.0566,1682.5703" style="stroke:#181818;stroke-width:1;"/><line style="stroke:#181818;stroke-width:1;" x1="344.9551" x2="1816.0566" y1="1682.5703" y2="1682.5703"/><text fill="#000000" font-family="sans-serif" font-size="13" lengthAdjust="spacing" textLength="114.5879" x="351.9551" y="1677.5044">Click &#8220;G&#7917;i l&#7841;i m&#227;&#8221;</text></g><g class="message" data-participant-1="ViewOTP" data-participant-2="Controller"><polygon fill="#181818" points="906.8989,1707.7031,896.8989,1711.7031,906.8989,1715.7031,902.8989,1711.7031" style="stroke:#181818;stroke-width:1;"/><line style="stroke:#181818;stroke-width:1;" x1="900.8989" x2="1821.0566" y1="1711.7031" y2="1711.7031"/><text fill="#000000" font-family="sans-serif" font-size="13" lengthAdjust="spacing" textLength="193.9209" x="912.8989" y="1706.6372">G&#7917;i POST /register/otp/resend</text></g><g class="message" data-participant-1="Controller" data-participant-2="Session"><polygon fill="#181818" points="1667.2754,1736.8359,1677.2754,1740.8359,1667.2754,1744.8359,1671.2754,1740.8359" style="stroke:#181818;stroke-width:1;"/><line style="stroke:#181818;stroke-width:1;" x1="895.8989" x2="1673.2754" y1="1740.8359" y2="1740.8359"/><text fill="#000000" font-family="sans-serif" font-size="13" lengthAdjust="spacing" textLength="117.4761" x="902.8989" y="1735.77">C&#7853;p nh&#7853;t OTP m&#7899;i</text></g><g class="message" data-participant-1="Controller" data-participant-2="Mail"><polygon fill="#181818" points="1550.5903,1765.9688,1560.5903,1769.9688,1550.5903,1773.9688,1554.5903,1769.9688" style="stroke:#181818;stroke-width:1;"/><line style="stroke:#181818;stroke-width:1;" x1="895.8989" x2="1556.5903" y1="1769.9688" y2="1769.9688"/><text fill="#000000" font-family="sans-serif" font-size="13" lengthAdjust="spacing" textLength="99.7534" x="902.8989" y="1764.9028">G&#7917;i l&#7841;i OTP m&#7899;i</text></g><g class="message" data-participant-1="Mail" data-participant-2="Controller"><polygon fill="#181818" points="906.8989,1779.9688,896.8989,1783.9688,906.8989,1787.9688,902.8989,1783.9688" style="stroke:#181818;stroke-width:1;"/><line style="stroke:#181818;stroke-width:1;stroke-dasharray:2.0,2.0;" x1="900.8989" x2="1561.5903" y1="1783.9688" y2="1783.9688"/></g><g class="message" data-participant-1="Controller" data-participant-2="API"><polygon fill="#181818" points="1323.4102,1809.1016,1333.4102,1813.1016,1323.4102,1817.1016,1327.4102,1813.1016" style="stroke:#181818;stroke-width:1;"/><line style="stroke:#181818;stroke-width:1;" x1="895.8989" x2="1329.4102" y1="1813.1016" y2="1813.1016"/><text fill="#000000" font-family="sans-serif" font-size="13" lengthAdjust="spacing" textLength="133.8594" x="902.8989" y="1808.0356">Ph&#7843;n h&#7891;i th&#224;nh c&#244;ng</text></g><!--SRC=[bLPDRzj64BtpLmnoiEb2jlkPjWBSmfBTEcvi6PQQ56WBWwRMujRIBa4kxUgM8WSVYW0nUYhI03QC8kY7qGJj9IAA72JaVp2_fBD3Ik9AbEtw89FSsTbvRsRUhECg6S2N8GiitmaKTxdl20MtTbcBXue5S8-pus-47MJlIxxdBzm29wG5SyzgfBog52gGxJOBo6ZyEka-LAi-9vlLdJiJVbnNHlXWRyacQwUdqQDfjkNmDjXL6R3C1DzDYpeBGov5BlmznJfP_DdY3DYrniuaz3sfV1C-6fdRgr8USXQ2lNc_iP0HG5-ifgESVITaS6ijUqBFJWeqJ4tNAgQpzOu6M6V1KKOcVKZV9t1sCRvEYeeUBMjb1IgldoVn4nVUASC6J-A70fINn3_2WGmwC3WTF1GjEEp_2oihbiu_B7v2eChG2A8kk4dlqeVb8NXBBscJSKRB47hoUCYOlG2Bq-TOO_En_u299j9vX2_s_F20URs_4IIz2pXAuX-WnHq9JVHt8WmqxvRXyoI-v7X8_nz4eBYu4iosHq0salWHgFxlefJIM8Bwu76Z15kugk0GZNwB2Z6cXwrkhdu5ExLw8yU82Gsh60bXQeCv22uaEXeUJtgl5BGf12zTAThNOgeYcrtQT3Vf_Tg5PXB_1MqDFu9zN38uUAyCNsYcEw02np15-Ar0Hdv-dL4T7VNF84pYKoIBI4N-PD8xvnRWdnaIzLeP3hXeLhh4baq-25B_pmxi9xqNo3TzfFsqGszTgvIXldvtlTg0j-2ptTeM36iSxc-ixwvdmQp0fxHlhGABmmFpZemSN1VXZYS5ittzEndXJC0t3vZy_i-0iRw1qb2KwtjEcwCQC2DlWzEazopIIP96fj_7RiIW9UdH7BHVFu-mo4YuTAvDzvcYwGRBgHtOmkcmKifyASLJ0iy9FTjtml1O1is54g2sqSyU-zxdGPSAKH-MwpA5WNGi8J7qWBSyLQQW1gSwr0kNbYM8LjBx8mBXSUmrAZgt_pS9mbCEs6NdPZT_C6omj2wqmobOMjTrQuccdM48e_tlcAjAuA8X4qf7E-d6el60stEgEJoiqx_GDbPkAKshhkTqdvdGWZG6BFIb25azSbta7QT4amSOL7ci4Cl8fmvj1t5V24GV_qIoTIOyP4NJMYYFc_NQDWpTcQ98IwuNTKbcFI9Hj0n6RnUflKX5CACtBv3ugLZmTV1MPd6LxjUKNopznF2C0isfarchYrC5HpKqBaoo61TJmI4ZL8LZHW_n-QmPPaySC2ZzS3H5PX6OBTzE1KV7D8EvcTD4qxsCTSWFkjSEbZbZNXGE6QqLnNFa-epei97Y2nzTn2T6mzSbXFrpB5zj8rgQ7yn4i_yICvRL65BvXDCw7gCbEBjcvGdzQAXggd_6SVXAwe_fnazLtWqOogNzzTBIqhS4U7fhHnzg6Q9-Pxk-ljl0VutQMD9jzB5W6I9UAE3vO3ykm-0ntIyoX2g9NsZ1Zd_6RrD1PnS-Ifc-4DkHBXQycUahuLIwy2FsivpWqXhU8z6VhZKadgd5zED8wbnwlOaqwGXAC1Qe-UNvAsN9GY_4I4uWJ0aoh8sxvjk6cg3l4-hNqvIgOUEajrHDB2fnTdlBs9t3kXdjntB45HSTF4lhiCqE4C2sMNcZ4JIbZ3HNNucHd_wby2ZUHlzbb_m-4iEcRElBmSmEhxQvUmXl7loIDyOvykR1qwjxlQ3DCJyeJRCwiKh8YGr5uQJ5NJGJ9mFFsk1c0snc-ly3]--></g></svg>